<svg xmlns="http://www.w3.org/2000/svg" xmlns:xlink="http://www.w3.org/1999/xlink" width="5000" zoomAndPan="magnify" viewBox="0 0 3750 3749.999967" height="5000" preserveAspectRatio="xMidYMid meet" version="1.0"><defs><g/><clipPath id="0a0059ef42"><path d="M 423.019531 216.964844 L 3327 216.964844 L 3327 972.039062 L 423.019531 972.039062 Z M 423.019531 216.964844 " clip-rule="nonzero"/></clipPath><clipPath id="e1484796f4"><path d="M 435.769531 216.964844 L 3314.230469 216.964844 C 3317.613281 216.964844 3320.855469 218.308594 3323.246094 220.699219 C 3325.636719 223.09375 3326.980469 226.335938 3326.980469 229.714844 L 3326.980469 959.289062 C 3326.980469 962.671875 3325.636719 965.914062 3323.246094 968.304688 C 3320.855469 970.695312 3317.613281 972.039062 3314.230469 972.039062 L 435.769531 972.039062 C 432.386719 972.039062 429.144531 970.695312 426.753906 968.304688 C 424.363281 965.914062 423.019531 962.671875 423.019531 959.289062 L 423.019531 229.714844 C 423.019531 226.335938 424.363281 223.09375 426.753906 220.699219 C 429.144531 218.308594 432.386719 216.964844 435.769531 216.964844 Z M 435.769531 216.964844 " clip-rule="nonzero"/></clipPath><clipPath id="c066e4af9d"><path d="M 1582.574219 2021.5 L 2167.40625 2021.5 L 2167.40625 3602.375 L 1582.574219 3602.375 Z M 1582.574219 2021.5 " clip-rule="nonzero"/></clipPath><clipPath id="65af3102b4"><path d="M 2167.40625 3602.375 L 1874.992188 2021.988281 L 1582.574219 3602.375 Z M 2167.40625 3602.375 " clip-rule="nonzero"/></clipPath><clipPath id="faac9299c4"><path d="M 562.035156 2096.9375 L 3187.964844 2096.9375 L 3187.964844 2177.664062 L 562.035156 2177.664062 Z M 562.035156 2096.9375 " clip-rule="nonzero"/></clipPath><clipPath id="2263439a51"><path d="M 1762.882812 2025.179688 L 1987.117188 2025.179688 L 1987.117188 2249.417969 L 1762.882812 2249.417969 Z M 1762.882812 2025.179688 " clip-rule="nonzero"/></clipPath><clipPath id="3c0e188f5b"><path d="M 1875 2025.179688 C 1813.078125 2025.179688 1762.882812 2075.378906 1762.882812 2137.300781 C 1762.882812 2199.222656 1813.078125 2249.417969 1875 2249.417969 C 1936.921875 2249.417969 1987.117188 2199.222656 1987.117188 2137.300781 C 1987.117188 2075.378906 1936.921875 2025.179688 1875 2025.179688 Z M 1875 2025.179688 " clip-rule="nonzero"/></clipPath><clipPath id="7dfb494970"><path d="M 562.035156 1791.058594 L 1569.285156 1791.058594 L 1569.285156 2097 L 562.035156 2097 Z M 562.035156 1791.058594 " clip-rule="nonzero"/></clipPath><clipPath id="56241fafc2"><path d="M 2180.960938 1791.058594 L 3188 1791.058594 L 3188 2097 L 2180.960938 2097 Z M 2180.960938 1791.058594 " clip-rule="nonzero"/></clipPath></defs><rect x="-375" width="4500" fill="#ffffff" y="-374.999997" height="4499.99996" fill-opacity="1"/><rect x="-375" width="4500" fill="#ffffff" y="-374.999997" height="4499.99996" fill-opacity="1"/><g clip-path="url(#0a0059ef42)"><g clip-path="url(#e1484796f4)"><path fill="#009299" d="M 423.019531 216.964844 L 3328.277344 216.964844 L 3328.277344 972.039062 L 423.019531 972.039062 Z M 423.019531 216.964844 " fill-opacity="1" fill-rule="nonzero"/></g></g><g clip-path="url(#c066e4af9d)"><g clip-path="url(#65af3102b4)"><path fill="#089197" d="M 2167.40625 3602.375 L 1582.574219 3602.375 L 1582.574219 2021.5 L 2167.40625 2021.5 Z M 2167.40625 3602.375 " fill-opacity="1" fill-rule="nonzero"/></g></g><g clip-path="url(#faac9299c4)"><path fill="#6abdc2" d="M 562.035156 2096.9375 L 3187.863281 2096.9375 L 3187.863281 2177.664062 L 562.035156 2177.664062 Z M 562.035156 2096.9375 " fill-opacity="1" fill-rule="nonzero"/></g><g clip-path="url(#2263439a51)"><g clip-path="url(#3c0e188f5b)"><path fill="#1e3d58" d="M 1762.882812 2025.179688 L 1987.117188 2025.179688 L 1987.117188 2249.417969 L 1762.882812 2249.417969 Z M 1762.882812 2025.179688 " fill-opacity="1" fill-rule="nonzero"/></g></g><g clip-path="url(#7dfb494970)"><path fill="#089197" d="M 1561.71875 1791.632812 L 569.34375 1791.632812 C 564.957031 1791.632812 562.035156 1794.554688 562.035156 1798.9375 L 562.035156 2089.050781 C 562.035156 2093.4375 564.957031 2096.359375 569.34375 2096.359375 L 1561.71875 2096.359375 C 1566.105469 2096.359375 1569.027344 2093.4375 1569.027344 2089.050781 L 1569.027344 1798.9375 C 1569.027344 1795.285156 1566.105469 1791.632812 1561.71875 1791.632812 Z M 1554.410156 2082.476562 L 576.648438 2082.476562 L 576.648438 1806.246094 L 1554.410156 1806.246094 Z M 1554.410156 2082.476562 " fill-opacity="1" fill-rule="nonzero"/></g><g fill="#089197" fill-opacity="1"><g transform="translate(2282.939918, 1989.416697)"><g><path d="M 52.796875 0 L 33.84375 -33.46875 L 25.71875 -33.46875 L 25.71875 0 L 8.484375 0 L 8.484375 -85.890625 L 40.734375 -85.890625 C 47.378906 -85.890625 53.039062 -84.722656 57.71875 -82.390625 C 62.394531 -80.054688 65.898438 -76.898438 68.234375 -72.921875 C 70.578125 -68.941406 71.75 -64.488281 71.75 -59.5625 C 71.75 -53.90625 70.109375 -48.796875 66.828125 -44.234375 C 63.546875 -39.679688 58.660156 -36.546875 52.171875 -34.828125 L 72.734375 0 Z M 25.71875 -46.390625 L 40.125 -46.390625 C 44.800781 -46.390625 48.285156 -47.515625 50.578125 -49.765625 C 52.878906 -52.023438 54.03125 -55.164062 54.03125 -59.1875 C 54.03125 -63.125 52.878906 -66.179688 50.578125 -68.359375 C 48.285156 -70.535156 44.800781 -71.625 40.125 -71.625 L 25.71875 -71.625 Z M 25.71875 -46.390625 "/></g></g></g><g fill="#089197" fill-opacity="1"><g transform="translate(2361.825193, 1989.416697)"><g><path d="M 25.71875 -71.984375 L 25.71875 -50.453125 L 54.640625 -50.453125 L 54.640625 -36.796875 L 25.71875 -36.796875 L 25.71875 -14.03125 L 58.328125 -14.03125 L 58.328125 0 L 8.484375 0 L 8.484375 -86.015625 L 58.328125 -86.015625 L 58.328125 -71.984375 Z M 25.71875 -71.984375 "/></g></g></g><g fill="#089197" fill-opacity="1"><g transform="translate(2427.296293, 1989.416697)"><g><path d="M 38.515625 -85.890625 C 47.546875 -85.890625 55.484375 -84.125 62.328125 -80.59375 C 69.179688 -77.070312 74.472656 -72.050781 78.203125 -65.53125 C 81.941406 -59.007812 83.8125 -51.441406 83.8125 -42.828125 C 83.8125 -34.210938 81.941406 -26.679688 78.203125 -20.234375 C 74.472656 -13.796875 69.179688 -8.8125 62.328125 -5.28125 C 55.484375 -1.757812 47.546875 0 38.515625 0 L 8.484375 0 L 8.484375 -85.890625 Z M 37.90625 -14.640625 C 46.925781 -14.640625 53.894531 -17.097656 58.8125 -22.015625 C 63.738281 -26.941406 66.203125 -33.878906 66.203125 -42.828125 C 66.203125 -51.765625 63.738281 -58.753906 58.8125 -63.796875 C 53.894531 -68.847656 46.925781 -71.375 37.90625 -71.375 L 25.71875 -71.375 L 25.71875 -14.640625 Z M 37.90625 -14.640625 "/></g></g></g><g fill="#089197" fill-opacity="1"><g transform="translate(2515.534563, 1989.416697)"><g><path d="M 25.71875 -71.984375 L 25.71875 -50.453125 L 54.640625 -50.453125 L 54.640625 -36.796875 L 25.71875 -36.796875 L 25.71875 -14.03125 L 58.328125 -14.03125 L 58.328125 0 L 8.484375 0 L 8.484375 -86.015625 L 58.328125 -86.015625 L 58.328125 -71.984375 Z M 25.71875 -71.984375 "/></g></g></g><g fill="#089197" fill-opacity="1"><g transform="translate(2581.005663, 1989.416697)"><g><path d="M 102.140625 -85.890625 L 102.140625 0 L 84.90625 0 L 84.90625 -55.875 L 61.90625 0 L 48.859375 0 L 25.71875 -55.875 L 25.71875 0 L 8.484375 0 L 8.484375 -85.890625 L 28.0625 -85.890625 L 55.375 -22.03125 L 82.703125 -85.890625 Z M 102.140625 -85.890625 "/></g></g></g><g fill="#089197" fill-opacity="1"><g transform="translate(2691.641958, 1989.416697)"><g><path d="M 71.125 -59.3125 C 71.125 -54.71875 70.035156 -50.410156 67.859375 -46.390625 C 65.691406 -42.367188 62.289062 -39.128906 57.65625 -36.671875 C 53.019531 -34.210938 47.175781 -32.984375 40.125 -32.984375 L 25.71875 -32.984375 L 25.71875 0 L 8.484375 0 L 8.484375 -85.890625 L 40.125 -85.890625 C 46.769531 -85.890625 52.425781 -84.738281 57.09375 -82.4375 C 61.769531 -80.144531 65.273438 -76.988281 67.609375 -72.96875 C 69.953125 -68.957031 71.125 -64.40625 71.125 -59.3125 Z M 39.375 -46.890625 C 44.132812 -46.890625 47.660156 -47.972656 49.953125 -50.140625 C 52.253906 -52.316406 53.40625 -55.375 53.40625 -59.3125 C 53.40625 -67.6875 48.726562 -71.875 39.375 -71.875 L 25.71875 -71.875 L 25.71875 -46.890625 Z M 39.375 -46.890625 "/></g></g></g><g fill="#089197" fill-opacity="1"><g transform="translate(2766.466052, 1989.416697)"><g><path d="M 66.953125 -85.890625 L 66.953125 -71.984375 L 44.0625 -71.984375 L 44.0625 0 L 26.828125 0 L 26.828125 -71.984375 L 3.9375 -71.984375 L 3.9375 -85.890625 Z M 66.953125 -85.890625 "/></g></g></g><g fill="#089197" fill-opacity="1"><g transform="translate(2837.475106, 1989.416697)"><g><path d="M 25.71875 -85.890625 L 25.71875 0 L 8.484375 0 L 8.484375 -85.890625 Z M 25.71875 -85.890625 "/></g></g></g><g fill="#089197" fill-opacity="1"><g transform="translate(2871.687465, 1989.416697)"><g><path d="M 48.359375 0.859375 C 40.316406 0.859375 32.929688 -1.023438 26.203125 -4.796875 C 19.484375 -8.566406 14.15625 -13.796875 10.21875 -20.484375 C 6.28125 -27.171875 4.3125 -34.738281 4.3125 -43.1875 C 4.3125 -51.5625 6.28125 -59.09375 10.21875 -65.78125 C 14.15625 -72.46875 19.484375 -77.695312 26.203125 -81.46875 C 32.929688 -85.238281 40.316406 -87.125 48.359375 -87.125 C 56.484375 -87.125 63.890625 -85.238281 70.578125 -81.46875 C 77.265625 -77.695312 82.554688 -72.46875 86.453125 -65.78125 C 90.347656 -59.09375 92.296875 -51.5625 92.296875 -43.1875 C 92.296875 -34.738281 90.347656 -27.171875 86.453125 -20.484375 C 82.554688 -13.796875 77.242188 -8.566406 70.515625 -4.796875 C 63.785156 -1.023438 56.398438 0.859375 48.359375 0.859375 Z M 48.359375 -14.515625 C 53.523438 -14.515625 58.078125 -15.679688 62.015625 -18.015625 C 65.960938 -20.359375 69.039062 -23.703125 71.25 -28.046875 C 73.46875 -32.398438 74.578125 -37.445312 74.578125 -43.1875 C 74.578125 -48.9375 73.46875 -53.960938 71.25 -58.265625 C 69.039062 -62.578125 65.960938 -65.878906 62.015625 -68.171875 C 58.078125 -70.472656 53.523438 -71.625 48.359375 -71.625 C 43.191406 -71.625 38.617188 -70.472656 34.640625 -68.171875 C 30.660156 -65.878906 27.5625 -62.578125 25.34375 -58.265625 C 23.132812 -53.960938 22.03125 -48.9375 22.03125 -43.1875 C 22.03125 -37.445312 23.132812 -32.398438 25.34375 -28.046875 C 27.5625 -23.703125 30.660156 -20.359375 34.640625 -18.015625 C 38.617188 -15.679688 43.191406 -14.515625 48.359375 -14.515625 Z M 48.359375 -14.515625 "/></g></g></g><g fill="#089197" fill-opacity="1"><g transform="translate(2968.294236, 1989.416697)"><g><path d="M 81.953125 0 L 64.734375 0 L 25.71875 -58.953125 L 25.71875 0 L 8.484375 0 L 8.484375 -86.015625 L 25.71875 -86.015625 L 64.734375 -26.953125 L 64.734375 -86.015625 L 81.953125 -86.015625 Z M 81.953125 0 "/></g></g></g><g clip-path="url(#56241fafc2)"><path fill="#089197" d="M 3180.648438 1791.632812 L 2188.269531 1791.632812 C 2183.886719 1791.632812 2180.960938 1794.554688 2180.960938 1798.9375 L 2180.960938 2089.050781 C 2180.960938 2093.4375 2183.886719 2096.359375 2188.269531 2096.359375 L 3180.648438 2096.359375 C 3185.03125 2096.359375 3187.953125 2093.4375 3187.953125 2089.050781 L 3187.953125 1798.9375 C 3187.953125 1795.285156 3185.03125 1791.632812 3180.648438 1791.632812 Z M 3173.339844 2082.476562 L 2195.578125 2082.476562 L 2195.578125 1806.246094 L 3173.339844 1806.246094 Z M 3173.339844 2082.476562 " fill-opacity="1" fill-rule="nonzero"/></g><g fill="#ffffff" fill-opacity="1"><g transform="translate(634.218525, 532.969566)"><g><path d="M 53.1875 1.203125 C 44.832031 1.203125 37.3125 -0.222656 30.625 -3.078125 C 23.9375 -5.941406 18.644531 -10.0625 14.75 -15.4375 C 10.863281 -20.8125 8.863281 -27.160156 8.75 -34.484375 L 34.484375 -34.484375 C 34.828125 -29.566406 36.570312 -25.675781 39.71875 -22.8125 C 42.863281 -19.957031 47.179688 -18.53125 52.671875 -18.53125 C 58.273438 -18.53125 62.675781 -19.875 65.875 -22.5625 C 69.082031 -25.25 70.6875 -28.765625 70.6875 -33.109375 C 70.6875 -36.660156 69.597656 -39.578125 67.421875 -41.859375 C 65.253906 -44.148438 62.539062 -45.953125 59.28125 -47.265625 C 56.019531 -48.585938 51.53125 -50.046875 45.8125 -51.640625 C 38.03125 -53.929688 31.707031 -56.191406 26.84375 -58.421875 C 21.988281 -60.648438 17.816406 -64.023438 14.328125 -68.546875 C 10.835938 -73.066406 9.09375 -79.097656 9.09375 -86.640625 C 9.09375 -93.734375 10.863281 -99.910156 14.40625 -105.171875 C 17.957031 -110.429688 22.9375 -114.460938 29.34375 -117.265625 C 35.75 -120.078125 43.066406 -121.484375 51.296875 -121.484375 C 63.648438 -121.484375 73.6875 -118.476562 81.40625 -112.46875 C 89.132812 -106.46875 93.398438 -98.085938 94.203125 -87.328125 L 67.765625 -87.328125 C 67.546875 -91.453125 65.804688 -94.859375 62.546875 -97.546875 C 59.285156 -100.234375 54.96875 -101.578125 49.59375 -101.578125 C 44.894531 -101.578125 41.144531 -100.375 38.34375 -97.96875 C 35.539062 -95.570312 34.140625 -92.082031 34.140625 -87.5 C 34.140625 -84.300781 35.195312 -81.644531 37.3125 -79.53125 C 39.4375 -77.414062 42.066406 -75.695312 45.203125 -74.375 C 48.347656 -73.0625 52.785156 -71.546875 58.515625 -69.828125 C 66.285156 -67.546875 72.628906 -65.257812 77.546875 -62.96875 C 82.472656 -60.675781 86.707031 -57.242188 90.25 -52.671875 C 93.789062 -48.097656 95.5625 -42.09375 95.5625 -34.65625 C 95.5625 -28.25 93.90625 -22.300781 90.59375 -16.8125 C 87.28125 -11.320312 82.421875 -6.945312 76.015625 -3.6875 C 69.609375 -0.425781 62 1.203125 53.1875 1.203125 Z M 53.1875 1.203125 "/></g></g></g><g fill="#ffffff" fill-opacity="1"><g transform="translate(736.13802, 532.969566)"><g><path d="M 93.34375 -119.765625 L 93.34375 -100.375 L 61.421875 -100.375 L 61.421875 0 L 37.40625 0 L 37.40625 -100.375 L 5.484375 -100.375 L 5.484375 -119.765625 Z M 93.34375 -119.765625 "/></g></g></g><g fill="#ffffff" fill-opacity="1"><g transform="translate(832.566866, 532.969566)"><g><path d="M 85.28125 -22.8125 L 37.578125 -22.8125 L 29.6875 0 L 4.46875 0 L 47.53125 -119.9375 L 75.5 -119.9375 L 118.5625 0 L 93.171875 0 Z M 78.75 -42.03125 L 61.421875 -92.140625 L 44.09375 -42.03125 Z M 78.75 -42.03125 "/></g></g></g><g fill="#ffffff" fill-opacity="1"><g transform="translate(952.845667, 532.969566)"><g><path d="M 79.78125 -61.421875 C 86.53125 -60.160156 92.078125 -56.785156 96.421875 -51.296875 C 100.773438 -45.804688 102.953125 -39.515625 102.953125 -32.421875 C 102.953125 -26.015625 101.378906 -20.378906 98.234375 -15.515625 C 95.085938 -10.660156 90.539062 -6.859375 84.59375 -4.109375 C 78.644531 -1.367188 71.609375 0 63.484375 0 L 11.84375 0 L 11.84375 -119.765625 L 61.25 -119.765625 C 69.375 -119.765625 76.378906 -118.445312 82.265625 -115.8125 C 88.160156 -113.1875 92.625 -109.523438 95.65625 -104.828125 C 98.6875 -100.140625 100.203125 -94.820312 100.203125 -88.875 C 100.203125 -81.894531 98.34375 -76.0625 94.625 -71.375 C 90.90625 -66.6875 85.957031 -63.367188 79.78125 -61.421875 Z M 35.859375 -70.34375 L 57.828125 -70.34375 C 63.546875 -70.34375 67.945312 -71.628906 71.03125 -74.203125 C 74.125 -76.773438 75.671875 -80.46875 75.671875 -85.28125 C 75.671875 -90.082031 74.125 -93.796875 71.03125 -96.421875 C 67.945312 -99.054688 63.546875 -100.375 57.828125 -100.375 L 35.859375 -100.375 Z M 60.046875 -19.5625 C 65.878906 -19.5625 70.425781 -20.929688 73.6875 -23.671875 C 76.945312 -26.421875 78.578125 -30.3125 78.578125 -35.34375 C 78.578125 -40.488281 76.859375 -44.519531 73.421875 -47.4375 C 69.992188 -50.351562 65.363281 -51.8125 59.53125 -51.8125 L 35.859375 -51.8125 L 35.859375 -19.5625 Z M 60.046875 -19.5625 "/></g></g></g><g fill="#ffffff" fill-opacity="1"><g transform="translate(1060.598946, 532.969566)"><g><path d="M 35.859375 -119.765625 L 35.859375 0 L 11.84375 0 L 11.84375 -119.765625 Z M 35.859375 -119.765625 "/></g></g></g><g fill="#ffffff" fill-opacity="1"><g transform="translate(1105.724528, 532.969566)"><g><path d="M 35.859375 -19.046875 L 75.328125 -19.046875 L 75.328125 0 L 11.84375 0 L 11.84375 -119.765625 L 35.859375 -119.765625 Z M 35.859375 -19.046875 "/></g></g></g><g fill="#ffffff" fill-opacity="1"><g transform="translate(1181.906622, 532.969566)"><g><path d="M 35.859375 -119.765625 L 35.859375 0 L 11.84375 0 L 11.84375 -119.765625 Z M 35.859375 -119.765625 "/></g></g></g><g fill="#ffffff" fill-opacity="1"><g transform="translate(1227.032203, 532.969566)"><g><path d="M 93.34375 -119.765625 L 93.34375 -100.375 L 61.421875 -100.375 L 61.421875 0 L 37.40625 0 L 37.40625 -100.375 L 5.484375 -100.375 L 5.484375 -119.765625 Z M 93.34375 -119.765625 "/></g></g></g><g fill="#ffffff" fill-opacity="1"><g transform="translate(1323.461049, 532.969566)"><g><path d="M 107.0625 -119.765625 L 66.578125 -41.6875 L 66.578125 0 L 42.546875 0 L 42.546875 -41.6875 L 1.890625 -119.765625 L 29 -119.765625 L 54.734375 -65.03125 L 80.296875 -119.765625 Z M 107.0625 -119.765625 "/></g></g></g><g fill="#ffffff" fill-opacity="1"><g transform="translate(1430.013196, 532.969566)"><g/></g></g><g fill="#ffffff" fill-opacity="1"><g transform="translate(1468.275541, 532.969566)"><g><path d="M 67.4375 1.203125 C 56.21875 1.203125 45.921875 -1.425781 36.546875 -6.6875 C 27.171875 -11.945312 19.734375 -19.238281 14.234375 -28.5625 C 8.742188 -37.882812 6 -48.4375 6 -60.21875 C 6 -71.882812 8.742188 -82.378906 14.234375 -91.703125 C 19.734375 -101.023438 27.171875 -108.316406 36.546875 -113.578125 C 45.921875 -118.847656 56.21875 -121.484375 67.4375 -121.484375 C 78.757812 -121.484375 89.082031 -118.847656 98.40625 -113.578125 C 107.726562 -108.316406 115.101562 -101.023438 120.53125 -91.703125 C 125.96875 -82.378906 128.6875 -71.882812 128.6875 -60.21875 C 128.6875 -48.4375 125.96875 -37.882812 120.53125 -28.5625 C 115.101562 -19.238281 107.695312 -11.945312 98.3125 -6.6875 C 88.9375 -1.425781 78.644531 1.203125 67.4375 1.203125 Z M 67.4375 -20.25 C 74.632812 -20.25 80.976562 -21.878906 86.46875 -25.140625 C 91.96875 -28.398438 96.257812 -33.0625 99.34375 -39.125 C 102.425781 -45.1875 103.96875 -52.21875 103.96875 -60.21875 C 103.96875 -68.226562 102.425781 -75.234375 99.34375 -81.234375 C 96.257812 -87.242188 91.96875 -91.847656 86.46875 -95.046875 C 80.976562 -98.253906 74.632812 -99.859375 67.4375 -99.859375 C 60.226562 -99.859375 53.847656 -98.253906 48.296875 -95.046875 C 42.753906 -91.847656 38.4375 -87.242188 35.34375 -81.234375 C 32.257812 -75.234375 30.71875 -68.226562 30.71875 -60.21875 C 30.71875 -52.21875 32.257812 -45.1875 35.34375 -39.125 C 38.4375 -33.0625 42.753906 -28.398438 48.296875 -25.140625 C 53.847656 -21.878906 60.226562 -20.25 67.4375 -20.25 Z M 67.4375 -20.25 "/></g></g></g><g fill="#ffffff" fill-opacity="1"><g transform="translate(1600.393555, 532.969566)"><g><path d="M 85.796875 -119.765625 L 85.796875 -100.375 L 35.859375 -100.375 L 35.859375 -69.65625 L 74.125 -69.65625 L 74.125 -50.609375 L 35.859375 -50.609375 L 35.859375 0 L 11.84375 0 L 11.84375 -119.765625 Z M 85.796875 -119.765625 "/></g></g></g><g fill="#ffffff" fill-opacity="1"><g transform="translate(1688.758001, 532.969566)"><g/></g></g><g fill="#ffffff" fill-opacity="1"><g transform="translate(1727.020347, 532.969566)"><g><path d="M 53.1875 1.203125 C 44.832031 1.203125 37.3125 -0.222656 30.625 -3.078125 C 23.9375 -5.941406 18.644531 -10.0625 14.75 -15.4375 C 10.863281 -20.8125 8.863281 -27.160156 8.75 -34.484375 L 34.484375 -34.484375 C 34.828125 -29.566406 36.570312 -25.675781 39.71875 -22.8125 C 42.863281 -19.957031 47.179688 -18.53125 52.671875 -18.53125 C 58.273438 -18.53125 62.675781 -19.875 65.875 -22.5625 C 69.082031 -25.25 70.6875 -28.765625 70.6875 -33.109375 C 70.6875 -36.660156 69.597656 -39.578125 67.421875 -41.859375 C 65.253906 -44.148438 62.539062 -45.953125 59.28125 -47.265625 C 56.019531 -48.585938 51.53125 -50.046875 45.8125 -51.640625 C 38.03125 -53.929688 31.707031 -56.191406 26.84375 -58.421875 C 21.988281 -60.648438 17.816406 -64.023438 14.328125 -68.546875 C 10.835938 -73.066406 9.09375 -79.097656 9.09375 -86.640625 C 9.09375 -93.734375 10.863281 -99.910156 14.40625 -105.171875 C 17.957031 -110.429688 22.9375 -114.460938 29.34375 -117.265625 C 35.75 -120.078125 43.066406 -121.484375 51.296875 -121.484375 C 63.648438 -121.484375 73.6875 -118.476562 81.40625 -112.46875 C 89.132812 -106.46875 93.398438 -98.085938 94.203125 -87.328125 L 67.765625 -87.328125 C 67.546875 -91.453125 65.804688 -94.859375 62.546875 -97.546875 C 59.285156 -100.234375 54.96875 -101.578125 49.59375 -101.578125 C 44.894531 -101.578125 41.144531 -100.375 38.34375 -97.96875 C 35.539062 -95.570312 34.140625 -92.082031 34.140625 -87.5 C 34.140625 -84.300781 35.195312 -81.644531 37.3125 -79.53125 C 39.4375 -77.414062 42.066406 -75.695312 45.203125 -74.375 C 48.347656 -73.0625 52.785156 -71.546875 58.515625 -69.828125 C 66.285156 -67.546875 72.628906 -65.257812 77.546875 -62.96875 C 82.472656 -60.675781 86.707031 -57.242188 90.25 -52.671875 C 93.789062 -48.097656 95.5625 -42.09375 95.5625 -34.65625 C 95.5625 -28.25 93.90625 -22.300781 90.59375 -16.8125 C 87.28125 -11.320312 82.421875 -6.945312 76.015625 -3.6875 C 69.609375 -0.425781 62 1.203125 53.1875 1.203125 Z M 53.1875 1.203125 "/></g></g></g><g fill="#ffffff" fill-opacity="1"><g transform="translate(1828.939874, 532.969566)"><g><path d="M 79.78125 -61.421875 C 86.53125 -60.160156 92.078125 -56.785156 96.421875 -51.296875 C 100.773438 -45.804688 102.953125 -39.515625 102.953125 -32.421875 C 102.953125 -26.015625 101.378906 -20.378906 98.234375 -15.515625 C 95.085938 -10.660156 90.539062 -6.859375 84.59375 -4.109375 C 78.644531 -1.367188 71.609375 0 63.484375 0 L 11.84375 0 L 11.84375 -119.765625 L 61.25 -119.765625 C 69.375 -119.765625 76.378906 -118.445312 82.265625 -115.8125 C 88.160156 -113.1875 92.625 -109.523438 95.65625 -104.828125 C 98.6875 -100.140625 100.203125 -94.820312 100.203125 -88.875 C 100.203125 -81.894531 98.34375 -76.0625 94.625 -71.375 C 90.90625 -66.6875 85.957031 -63.367188 79.78125 -61.421875 Z M 35.859375 -70.34375 L 57.828125 -70.34375 C 63.546875 -70.34375 67.945312 -71.628906 71.03125 -74.203125 C 74.125 -76.773438 75.671875 -80.46875 75.671875 -85.28125 C 75.671875 -90.082031 74.125 -93.796875 71.03125 -96.421875 C 67.945312 -99.054688 63.546875 -100.375 57.828125 -100.375 L 35.859375 -100.375 Z M 60.046875 -19.5625 C 65.878906 -19.5625 70.425781 -20.929688 73.6875 -23.671875 C 76.945312 -26.421875 78.578125 -30.3125 78.578125 -35.34375 C 78.578125 -40.488281 76.859375 -44.519531 73.421875 -47.4375 C 69.992188 -50.351562 65.363281 -51.8125 59.53125 -51.8125 L 35.859375 -51.8125 L 35.859375 -19.5625 Z M 60.046875 -19.5625 "/></g></g></g><g fill="#ffffff" fill-opacity="1"><g transform="translate(1936.693115, 532.969566)"><g><path d="M 53.703125 -119.765625 C 66.285156 -119.765625 77.351562 -117.300781 86.90625 -112.375 C 96.457031 -107.457031 103.832031 -100.453125 109.03125 -91.359375 C 114.238281 -82.265625 116.84375 -71.710938 116.84375 -59.703125 C 116.84375 -47.691406 114.238281 -37.195312 109.03125 -28.21875 C 103.832031 -19.238281 96.457031 -12.289062 86.90625 -7.375 C 77.351562 -2.457031 66.285156 0 53.703125 0 L 11.84375 0 L 11.84375 -119.765625 Z M 52.84375 -20.421875 C 65.425781 -20.421875 75.148438 -23.847656 82.015625 -30.703125 C 88.878906 -37.566406 92.3125 -47.234375 92.3125 -59.703125 C 92.3125 -72.171875 88.878906 -81.921875 82.015625 -88.953125 C 75.148438 -95.992188 65.425781 -99.515625 52.84375 -99.515625 L 35.859375 -99.515625 L 35.859375 -20.421875 Z M 52.84375 -20.421875 "/></g></g></g><g fill="#ffffff" fill-opacity="1"><g transform="translate(2057.14356, 532.969566)"><g/></g></g><g fill="#ffffff" fill-opacity="1"><g transform="translate(2095.405905, 532.969566)"><g><path d="M 35.859375 -119.765625 L 35.859375 0 L 11.84375 0 L 11.84375 -119.765625 Z M 35.859375 -119.765625 "/></g></g></g><g fill="#ffffff" fill-opacity="1"><g transform="translate(2140.531451, 532.969566)"><g><path d="M 53.1875 1.203125 C 44.832031 1.203125 37.3125 -0.222656 30.625 -3.078125 C 23.9375 -5.941406 18.644531 -10.0625 14.75 -15.4375 C 10.863281 -20.8125 8.863281 -27.160156 8.75 -34.484375 L 34.484375 -34.484375 C 34.828125 -29.566406 36.570312 -25.675781 39.71875 -22.8125 C 42.863281 -19.957031 47.179688 -18.53125 52.671875 -18.53125 C 58.273438 -18.53125 62.675781 -19.875 65.875 -22.5625 C 69.082031 -25.25 70.6875 -28.765625 70.6875 -33.109375 C 70.6875 -36.660156 69.597656 -39.578125 67.421875 -41.859375 C 65.253906 -44.148438 62.539062 -45.953125 59.28125 -47.265625 C 56.019531 -48.585938 51.53125 -50.046875 45.8125 -51.640625 C 38.03125 -53.929688 31.707031 -56.191406 26.84375 -58.421875 C 21.988281 -60.648438 17.816406 -64.023438 14.328125 -68.546875 C 10.835938 -73.066406 9.09375 -79.097656 9.09375 -86.640625 C 9.09375 -93.734375 10.863281 -99.910156 14.40625 -105.171875 C 17.957031 -110.429688 22.9375 -114.460938 29.34375 -117.265625 C 35.75 -120.078125 43.066406 -121.484375 51.296875 -121.484375 C 63.648438 -121.484375 73.6875 -118.476562 81.40625 -112.46875 C 89.132812 -106.46875 93.398438 -98.085938 94.203125 -87.328125 L 67.765625 -87.328125 C 67.546875 -91.453125 65.804688 -94.859375 62.546875 -97.546875 C 59.285156 -100.234375 54.96875 -101.578125 49.59375 -101.578125 C 44.894531 -101.578125 41.144531 -100.375 38.34375 -97.96875 C 35.539062 -95.570312 34.140625 -92.082031 34.140625 -87.5 C 34.140625 -84.300781 35.195312 -81.644531 37.3125 -79.53125 C 39.4375 -77.414062 42.066406 -75.695312 45.203125 -74.375 C 48.347656 -73.0625 52.785156 -71.546875 58.515625 -69.828125 C 66.285156 -67.546875 72.628906 -65.257812 77.546875 -62.96875 C 82.472656 -60.675781 86.707031 -57.242188 90.25 -52.671875 C 93.789062 -48.097656 95.5625 -42.09375 95.5625 -34.65625 C 95.5625 -28.25 93.90625 -22.300781 90.59375 -16.8125 C 87.28125 -11.320312 82.421875 -6.945312 76.015625 -3.6875 C 69.609375 -0.425781 62 1.203125 53.1875 1.203125 Z M 53.1875 1.203125 "/></g></g></g><g fill="#ffffff" fill-opacity="1"><g transform="translate(2242.450979, 532.969566)"><g/></g></g><g fill="#ffffff" fill-opacity="1"><g transform="translate(2280.713324, 532.969566)"><g><path d="M 85.28125 -22.8125 L 37.578125 -22.8125 L 29.6875 0 L 4.46875 0 L 47.53125 -119.9375 L 75.5 -119.9375 L 118.5625 0 L 93.171875 0 Z M 78.75 -42.03125 L 61.421875 -92.140625 L 44.09375 -42.03125 Z M 78.75 -42.03125 "/></g></g></g><g fill="#ffffff" fill-opacity="1"><g transform="translate(2400.992163, 532.969566)"><g><path d="M 6 -60.046875 C 6 -71.828125 8.660156 -82.378906 13.984375 -91.703125 C 19.304688 -101.023438 26.570312 -108.289062 35.78125 -113.5 C 44.988281 -118.707031 55.3125 -121.3125 66.75 -121.3125 C 80.125 -121.3125 91.84375 -117.878906 101.90625 -111.015625 C 111.976562 -104.148438 119.015625 -94.65625 123.015625 -82.53125 L 95.390625 -82.53125 C 92.648438 -88.25 88.789062 -92.535156 83.8125 -95.390625 C 78.84375 -98.253906 73.097656 -99.6875 66.578125 -99.6875 C 59.597656 -99.6875 53.390625 -98.054688 47.953125 -94.796875 C 42.523438 -91.535156 38.296875 -86.929688 35.265625 -80.984375 C 32.234375 -75.035156 30.71875 -68.054688 30.71875 -60.046875 C 30.71875 -52.160156 32.234375 -45.210938 35.265625 -39.203125 C 38.296875 -33.203125 42.523438 -28.570312 47.953125 -25.3125 C 53.390625 -22.050781 59.597656 -20.421875 66.578125 -20.421875 C 73.097656 -20.421875 78.84375 -21.878906 83.8125 -24.796875 C 88.789062 -27.710938 92.648438 -32.03125 95.390625 -37.75 L 123.015625 -37.75 C 119.015625 -25.507812 112.007812 -15.984375 102 -9.171875 C 91.988281 -2.367188 80.238281 1.03125 66.75 1.03125 C 55.3125 1.03125 44.988281 -1.566406 35.78125 -6.765625 C 26.570312 -11.972656 19.304688 -19.207031 13.984375 -28.46875 C 8.660156 -37.738281 6 -48.265625 6 -60.046875 Z M 6 -60.046875 "/></g></g></g><g fill="#ffffff" fill-opacity="1"><g transform="translate(2530.193323, 532.969566)"><g><path d="M 111.1875 -119.765625 L 111.1875 0 L 87.15625 0 L 87.15625 -50.953125 L 35.859375 -50.953125 L 35.859375 0 L 11.84375 0 L 11.84375 -119.765625 L 35.859375 -119.765625 L 35.859375 -70.515625 L 87.15625 -70.515625 L 87.15625 -119.765625 Z M 111.1875 -119.765625 "/></g></g></g><g fill="#ffffff" fill-opacity="1"><g transform="translate(2650.643768, 532.969566)"><g><path d="M 35.859375 -119.765625 L 35.859375 0 L 11.84375 0 L 11.84375 -119.765625 Z M 35.859375 -119.765625 "/></g></g></g><g fill="#ffffff" fill-opacity="1"><g transform="translate(2695.769313, 532.969566)"><g><path d="M 35.859375 -100.375 L 35.859375 -70.34375 L 76.1875 -70.34375 L 76.1875 -51.296875 L 35.859375 -51.296875 L 35.859375 -19.5625 L 81.328125 -19.5625 L 81.328125 0 L 11.84375 0 L 11.84375 -119.9375 L 81.328125 -119.9375 L 81.328125 -100.375 Z M 35.859375 -100.375 "/></g></g></g><g fill="#ffffff" fill-opacity="1"><g transform="translate(2784.476966, 532.969566)"><g><path d="M 119.421875 -119.765625 L 75.5 0 L 46.328125 0 L 2.40625 -119.765625 L 28.140625 -119.765625 L 61.078125 -24.53125 L 93.859375 -119.765625 Z M 119.421875 -119.765625 "/></g></g></g><g fill="#ffffff" fill-opacity="1"><g transform="translate(2903.897923, 532.969566)"><g><path d="M 35.859375 -100.375 L 35.859375 -70.34375 L 76.1875 -70.34375 L 76.1875 -51.296875 L 35.859375 -51.296875 L 35.859375 -19.5625 L 81.328125 -19.5625 L 81.328125 0 L 11.84375 0 L 11.84375 -119.9375 L 81.328125 -119.9375 L 81.328125 -100.375 Z M 35.859375 -100.375 "/></g></g></g><g fill="#ffffff" fill-opacity="1"><g transform="translate(2992.605576, 532.969566)"><g><path d="M 53.703125 -119.765625 C 66.285156 -119.765625 77.351562 -117.300781 86.90625 -112.375 C 96.457031 -107.457031 103.832031 -100.453125 109.03125 -91.359375 C 114.238281 -82.265625 116.84375 -71.710938 116.84375 -59.703125 C 116.84375 -47.691406 114.238281 -37.195312 109.03125 -28.21875 C 103.832031 -19.238281 96.457031 -12.289062 86.90625 -7.375 C 77.351562 -2.457031 66.285156 0 53.703125 0 L 11.84375 0 L 11.84375 -119.765625 Z M 52.84375 -20.421875 C 65.425781 -20.421875 75.148438 -23.847656 82.015625 -30.703125 C 88.878906 -37.566406 92.3125 -47.234375 92.3125 -59.703125 C 92.3125 -72.171875 88.878906 -81.921875 82.015625 -88.953125 C 75.148438 -95.992188 65.425781 -99.515625 52.84375 -99.515625 L 35.859375 -99.515625 L 35.859375 -20.421875 Z M 52.84375 -20.421875 "/></g></g></g><g fill="#ffffff" fill-opacity="1"><g transform="translate(960.150699, 769.634634)"><g><path d="M 79.78125 -61.421875 C 86.53125 -60.160156 92.078125 -56.785156 96.421875 -51.296875 C 100.773438 -45.804688 102.953125 -39.515625 102.953125 -32.421875 C 102.953125 -26.015625 101.378906 -20.378906 98.234375 -15.515625 C 95.085938 -10.660156 90.539062 -6.859375 84.59375 -4.109375 C 78.644531 -1.367188 71.609375 0 63.484375 0 L 11.84375 0 L 11.84375 -119.765625 L 61.25 -119.765625 C 69.375 -119.765625 76.378906 -118.445312 82.265625 -115.8125 C 88.160156 -113.1875 92.625 -109.523438 95.65625 -104.828125 C 98.6875 -100.140625 100.203125 -94.820312 100.203125 -88.875 C 100.203125 -81.894531 98.34375 -76.0625 94.625 -71.375 C 90.90625 -66.6875 85.957031 -63.367188 79.78125 -61.421875 Z M 35.859375 -70.34375 L 57.828125 -70.34375 C 63.546875 -70.34375 67.945312 -71.628906 71.03125 -74.203125 C 74.125 -76.773438 75.671875 -80.46875 75.671875 -85.28125 C 75.671875 -90.082031 74.125 -93.796875 71.03125 -96.421875 C 67.945312 -99.054688 63.546875 -100.375 57.828125 -100.375 L 35.859375 -100.375 Z M 60.046875 -19.5625 C 65.878906 -19.5625 70.425781 -20.929688 73.6875 -23.671875 C 76.945312 -26.421875 78.578125 -30.3125 78.578125 -35.34375 C 78.578125 -40.488281 76.859375 -44.519531 73.421875 -47.4375 C 69.992188 -50.351562 65.363281 -51.8125 59.53125 -51.8125 L 35.859375 -51.8125 L 35.859375 -19.5625 Z M 60.046875 -19.5625 "/></g></g></g><g fill="#ffffff" fill-opacity="1"><g transform="translate(1067.903978, 769.634634)"><g><path d="M 107.0625 -119.765625 L 66.578125 -41.6875 L 66.578125 0 L 42.546875 0 L 42.546875 -41.6875 L 1.890625 -119.765625 L 29 -119.765625 L 54.734375 -65.03125 L 80.296875 -119.765625 Z M 107.0625 -119.765625 "/></g></g></g><g fill="#ffffff" fill-opacity="1"><g transform="translate(1174.456162, 769.634634)"><g/></g></g><g fill="#ffffff" fill-opacity="1"><g transform="translate(1212.718472, 769.634634)"><g><path d="M 93.34375 -119.765625 L 93.34375 -100.375 L 61.421875 -100.375 L 61.421875 0 L 37.40625 0 L 37.40625 -100.375 L 5.484375 -100.375 L 5.484375 -119.765625 Z M 93.34375 -119.765625 "/></g></g></g><g fill="#ffffff" fill-opacity="1"><g transform="translate(1309.147318, 769.634634)"><g><path d="M 171.921875 -119.765625 L 138.46875 0 L 110.15625 0 L 87.671875 -85.28125 L 64.171875 0 L 36.03125 0.171875 L 3.78125 -119.765625 L 29.515625 -119.765625 L 50.609375 -26.765625 L 74.984375 -119.765625 L 101.75 -119.765625 L 124.734375 -27.28125 L 146.015625 -119.765625 Z M 171.921875 -119.765625 "/></g></g></g><g fill="#ffffff" fill-opacity="1"><g transform="translate(1482.273613, 769.634634)"><g><path d="M 67.4375 1.203125 C 56.21875 1.203125 45.921875 -1.425781 36.546875 -6.6875 C 27.171875 -11.945312 19.734375 -19.238281 14.234375 -28.5625 C 8.742188 -37.882812 6 -48.4375 6 -60.21875 C 6 -71.882812 8.742188 -82.378906 14.234375 -91.703125 C 19.734375 -101.023438 27.171875 -108.316406 36.546875 -113.578125 C 45.921875 -118.847656 56.21875 -121.484375 67.4375 -121.484375 C 78.757812 -121.484375 89.082031 -118.847656 98.40625 -113.578125 C 107.726562 -108.316406 115.101562 -101.023438 120.53125 -91.703125 C 125.96875 -82.378906 128.6875 -71.882812 128.6875 -60.21875 C 128.6875 -48.4375 125.96875 -37.882812 120.53125 -28.5625 C 115.101562 -19.238281 107.695312 -11.945312 98.3125 -6.6875 C 88.9375 -1.425781 78.644531 1.203125 67.4375 1.203125 Z M 67.4375 -20.25 C 74.632812 -20.25 80.976562 -21.878906 86.46875 -25.140625 C 91.96875 -28.398438 96.257812 -33.0625 99.34375 -39.125 C 102.425781 -45.1875 103.96875 -52.21875 103.96875 -60.21875 C 103.96875 -68.226562 102.425781 -75.234375 99.34375 -81.234375 C 96.257812 -87.242188 91.96875 -91.847656 86.46875 -95.046875 C 80.976562 -98.253906 74.632812 -99.859375 67.4375 -99.859375 C 60.226562 -99.859375 53.847656 -98.253906 48.296875 -95.046875 C 42.753906 -91.847656 38.4375 -87.242188 35.34375 -81.234375 C 32.257812 -75.234375 30.71875 -68.226562 30.71875 -60.21875 C 30.71875 -52.21875 32.257812 -45.1875 35.34375 -39.125 C 38.4375 -33.0625 42.753906 -28.398438 48.296875 -25.140625 C 53.847656 -21.878906 60.226562 -20.25 67.4375 -20.25 Z M 67.4375 -20.25 "/></g></g></g><g fill="#ffffff" fill-opacity="1"><g transform="translate(1614.391665, 769.634634)"><g/></g></g><g fill="#ffffff" fill-opacity="1"><g transform="translate(1652.65401, 769.634634)"><g><path d="M 142.40625 -119.765625 L 142.40625 0 L 118.390625 0 L 118.390625 -77.890625 L 86.296875 0 L 68.109375 0 L 35.859375 -77.890625 L 35.859375 0 L 11.84375 0 L 11.84375 -119.765625 L 39.125 -119.765625 L 77.203125 -30.71875 L 115.296875 -119.765625 Z M 142.40625 -119.765625 "/></g></g></g><g fill="#ffffff" fill-opacity="1"><g transform="translate(1804.332425, 769.634634)"><g><path d="M 35.859375 -100.375 L 35.859375 -70.34375 L 76.1875 -70.34375 L 76.1875 -51.296875 L 35.859375 -51.296875 L 35.859375 -19.5625 L 81.328125 -19.5625 L 81.328125 0 L 11.84375 0 L 11.84375 -119.9375 L 81.328125 -119.9375 L 81.328125 -100.375 Z M 35.859375 -100.375 "/></g></g></g><g fill="#ffffff" fill-opacity="1"><g transform="translate(1893.040078, 769.634634)"><g><path d="M 6 -60.046875 C 6 -71.828125 8.660156 -82.378906 13.984375 -91.703125 C 19.304688 -101.023438 26.570312 -108.289062 35.78125 -113.5 C 44.988281 -118.707031 55.3125 -121.3125 66.75 -121.3125 C 80.125 -121.3125 91.84375 -117.878906 101.90625 -111.015625 C 111.976562 -104.148438 119.015625 -94.65625 123.015625 -82.53125 L 95.390625 -82.53125 C 92.648438 -88.25 88.789062 -92.535156 83.8125 -95.390625 C 78.84375 -98.253906 73.097656 -99.6875 66.578125 -99.6875 C 59.597656 -99.6875 53.390625 -98.054688 47.953125 -94.796875 C 42.523438 -91.535156 38.296875 -86.929688 35.265625 -80.984375 C 32.234375 -75.035156 30.71875 -68.054688 30.71875 -60.046875 C 30.71875 -52.160156 32.234375 -45.210938 35.265625 -39.203125 C 38.296875 -33.203125 42.523438 -28.570312 47.953125 -25.3125 C 53.390625 -22.050781 59.597656 -20.421875 66.578125 -20.421875 C 73.097656 -20.421875 78.84375 -21.878906 83.8125 -24.796875 C 88.789062 -27.710938 92.648438 -32.03125 95.390625 -37.75 L 123.015625 -37.75 C 119.015625 -25.507812 112.007812 -15.984375 102 -9.171875 C 91.988281 -2.367188 80.238281 1.03125 66.75 1.03125 C 55.3125 1.03125 44.988281 -1.566406 35.78125 -6.765625 C 26.570312 -11.972656 19.304688 -19.207031 13.984375 -28.46875 C 8.660156 -37.738281 6 -48.265625 6 -60.046875 Z M 6 -60.046875 "/></g></g></g><g fill="#ffffff" fill-opacity="1"><g transform="translate(2022.241238, 769.634634)"><g><path d="M 111.1875 -119.765625 L 111.1875 0 L 87.15625 0 L 87.15625 -50.953125 L 35.859375 -50.953125 L 35.859375 0 L 11.84375 0 L 11.84375 -119.765625 L 35.859375 -119.765625 L 35.859375 -70.515625 L 87.15625 -70.515625 L 87.15625 -119.765625 Z M 111.1875 -119.765625 "/></g></g></g><g fill="#ffffff" fill-opacity="1"><g transform="translate(2142.691683, 769.634634)"><g><path d="M 85.28125 -22.8125 L 37.578125 -22.8125 L 29.6875 0 L 4.46875 0 L 47.53125 -119.9375 L 75.5 -119.9375 L 118.5625 0 L 93.171875 0 Z M 78.75 -42.03125 L 61.421875 -92.140625 L 44.09375 -42.03125 Z M 78.75 -42.03125 "/></g></g></g><g fill="#ffffff" fill-opacity="1"><g transform="translate(2262.970522, 769.634634)"><g><path d="M 114.265625 0 L 90.25 0 L 35.859375 -82.1875 L 35.859375 0 L 11.84375 0 L 11.84375 -119.9375 L 35.859375 -119.9375 L 90.25 -37.578125 L 90.25 -119.9375 L 114.265625 -119.9375 Z M 114.265625 0 "/></g></g></g><g fill="#ffffff" fill-opacity="1"><g transform="translate(2386.509427, 769.634634)"><g><path d="M 35.859375 -119.765625 L 35.859375 0 L 11.84375 0 L 11.84375 -119.765625 Z M 35.859375 -119.765625 "/></g></g></g><g fill="#ffffff" fill-opacity="1"><g transform="translate(2431.634973, 769.634634)"><g><path d="M 53.1875 1.203125 C 44.832031 1.203125 37.3125 -0.222656 30.625 -3.078125 C 23.9375 -5.941406 18.644531 -10.0625 14.75 -15.4375 C 10.863281 -20.8125 8.863281 -27.160156 8.75 -34.484375 L 34.484375 -34.484375 C 34.828125 -29.566406 36.570312 -25.675781 39.71875 -22.8125 C 42.863281 -19.957031 47.179688 -18.53125 52.671875 -18.53125 C 58.273438 -18.53125 62.675781 -19.875 65.875 -22.5625 C 69.082031 -25.25 70.6875 -28.765625 70.6875 -33.109375 C 70.6875 -36.660156 69.597656 -39.578125 67.421875 -41.859375 C 65.253906 -44.148438 62.539062 -45.953125 59.28125 -47.265625 C 56.019531 -48.585938 51.53125 -50.046875 45.8125 -51.640625 C 38.03125 -53.929688 31.707031 -56.191406 26.84375 -58.421875 C 21.988281 -60.648438 17.816406 -64.023438 14.328125 -68.546875 C 10.835938 -73.066406 9.09375 -79.097656 9.09375 -86.640625 C 9.09375 -93.734375 10.863281 -99.910156 14.40625 -105.171875 C 17.957031 -110.429688 22.9375 -114.460938 29.34375 -117.265625 C 35.75 -120.078125 43.066406 -121.484375 51.296875 -121.484375 C 63.648438 -121.484375 73.6875 -118.476562 81.40625 -112.46875 C 89.132812 -106.46875 93.398438 -98.085938 94.203125 -87.328125 L 67.765625 -87.328125 C 67.546875 -91.453125 65.804688 -94.859375 62.546875 -97.546875 C 59.285156 -100.234375 54.96875 -101.578125 49.59375 -101.578125 C 44.894531 -101.578125 41.144531 -100.375 38.34375 -97.96875 C 35.539062 -95.570312 34.140625 -92.082031 34.140625 -87.5 C 34.140625 -84.300781 35.195312 -81.644531 37.3125 -79.53125 C 39.4375 -77.414062 42.066406 -75.695312 45.203125 -74.375 C 48.347656 -73.0625 52.785156 -71.546875 58.515625 -69.828125 C 66.285156 -67.546875 72.628906 -65.257812 77.546875 -62.96875 C 82.472656 -60.675781 86.707031 -57.242188 90.25 -52.671875 C 93.789062 -48.097656 95.5625 -42.09375 95.5625 -34.65625 C 95.5625 -28.25 93.90625 -22.300781 90.59375 -16.8125 C 87.28125 -11.320312 82.421875 -6.945312 76.015625 -3.6875 C 69.609375 -0.425781 62 1.203125 53.1875 1.203125 Z M 53.1875 1.203125 "/></g></g></g><g fill="#ffffff" fill-opacity="1"><g transform="translate(2533.5545, 769.634634)"><g><path d="M 142.40625 -119.765625 L 142.40625 0 L 118.390625 0 L 118.390625 -77.890625 L 86.296875 0 L 68.109375 0 L 35.859375 -77.890625 L 35.859375 0 L 11.84375 0 L 11.84375 -119.765625 L 39.125 -119.765625 L 77.203125 -30.71875 L 115.296875 -119.765625 Z M 142.40625 -119.765625 "/></g></g></g><g fill="#ffffff" fill-opacity="1"><g transform="translate(2685.232915, 769.634634)"><g><path d="M 53.1875 1.203125 C 44.832031 1.203125 37.3125 -0.222656 30.625 -3.078125 C 23.9375 -5.941406 18.644531 -10.0625 14.75 -15.4375 C 10.863281 -20.8125 8.863281 -27.160156 8.75 -34.484375 L 34.484375 -34.484375 C 34.828125 -29.566406 36.570312 -25.675781 39.71875 -22.8125 C 42.863281 -19.957031 47.179688 -18.53125 52.671875 -18.53125 C 58.273438 -18.53125 62.675781 -19.875 65.875 -22.5625 C 69.082031 -25.25 70.6875 -28.765625 70.6875 -33.109375 C 70.6875 -36.660156 69.597656 -39.578125 67.421875 -41.859375 C 65.253906 -44.148438 62.539062 -45.953125 59.28125 -47.265625 C 56.019531 -48.585938 51.53125 -50.046875 45.8125 -51.640625 C 38.03125 -53.929688 31.707031 -56.191406 26.84375 -58.421875 C 21.988281 -60.648438 17.816406 -64.023438 14.328125 -68.546875 C 10.835938 -73.066406 9.09375 -79.097656 9.09375 -86.640625 C 9.09375 -93.734375 10.863281 -99.910156 14.40625 -105.171875 C 17.957031 -110.429688 22.9375 -114.460938 29.34375 -117.265625 C 35.75 -120.078125 43.066406 -121.484375 51.296875 -121.484375 C 63.648438 -121.484375 73.6875 -118.476562 81.40625 -112.46875 C 89.132812 -106.46875 93.398438 -98.085938 94.203125 -87.328125 L 67.765625 -87.328125 C 67.546875 -91.453125 65.804688 -94.859375 62.546875 -97.546875 C 59.285156 -100.234375 54.96875 -101.578125 49.59375 -101.578125 C 44.894531 -101.578125 41.144531 -100.375 38.34375 -97.96875 C 35.539062 -95.570312 34.140625 -92.082031 34.140625 -87.5 C 34.140625 -84.300781 35.195312 -81.644531 37.3125 -79.53125 C 39.4375 -77.414062 42.066406 -75.695312 45.203125 -74.375 C 48.347656 -73.0625 52.785156 -71.546875 58.515625 -69.828125 C 66.285156 -67.546875 72.628906 -65.257812 77.546875 -62.96875 C 82.472656 -60.675781 86.707031 -57.242188 90.25 -52.671875 C 93.789062 -48.097656 95.5625 -42.09375 95.5625 -34.65625 C 95.5625 -28.25 93.90625 -22.300781 90.59375 -16.8125 C 87.28125 -11.320312 82.421875 -6.945312 76.015625 -3.6875 C 69.609375 -0.425781 62 1.203125 53.1875 1.203125 Z M 53.1875 1.203125 "/></g></g></g><g fill="#089197" fill-opacity="1"><g transform="translate(677.329462, 1989.171187)"><g><path d="M 25.75 -13.671875 L 54.078125 -13.671875 L 54.078125 0 L 8.5 0 L 8.5 -85.96875 L 25.75 -85.96875 Z M 25.75 -13.671875 "/></g></g></g><g fill="#089197" fill-opacity="1"><g transform="translate(733.828162, 1989.171187)"><g><path d="M 25.75 -85.96875 L 25.75 0 L 8.5 0 L 8.5 -85.96875 Z M 25.75 -85.96875 "/></g></g></g><g fill="#089197" fill-opacity="1"><g transform="translate(768.047473, 1989.171187)"><g><path d="M 72.546875 15.15625 L 59.484375 -0.5 C 55.878906 0.40625 52.1875 0.859375 48.40625 0.859375 C 40.351562 0.859375 32.960938 -1.023438 26.234375 -4.796875 C 19.503906 -8.578125 14.164062 -13.8125 10.21875 -20.5 C 6.28125 -27.195312 4.3125 -34.773438 4.3125 -43.234375 C 4.3125 -51.609375 6.28125 -59.140625 10.21875 -65.828125 C 14.164062 -72.523438 19.503906 -77.757812 26.234375 -81.53125 C 32.960938 -85.3125 40.351562 -87.203125 48.40625 -87.203125 C 56.53125 -87.203125 63.9375 -85.3125 70.625 -81.53125 C 77.320312 -77.757812 82.617188 -72.523438 86.515625 -65.828125 C 90.421875 -59.140625 92.375 -51.609375 92.375 -43.234375 C 92.375 -35.597656 90.75 -28.640625 87.5 -22.359375 C 84.257812 -16.078125 79.847656 -10.960938 74.265625 -7.015625 L 93.984375 15.15625 Z M 22.046875 -43.234375 C 22.046875 -37.484375 23.15625 -32.429688 25.375 -28.078125 C 27.59375 -23.734375 30.691406 -20.390625 34.671875 -18.046875 C 38.648438 -15.703125 43.226562 -14.53125 48.40625 -14.53125 C 53.582031 -14.53125 58.140625 -15.703125 62.078125 -18.046875 C 66.015625 -20.390625 69.09375 -23.734375 71.3125 -28.078125 C 73.53125 -32.429688 74.640625 -37.484375 74.640625 -43.234375 C 74.640625 -48.984375 73.53125 -54.007812 71.3125 -58.3125 C 69.09375 -62.625 66.015625 -65.929688 62.078125 -68.234375 C 58.140625 -70.535156 53.582031 -71.6875 48.40625 -71.6875 C 43.226562 -71.6875 38.648438 -70.535156 34.671875 -68.234375 C 30.691406 -65.929688 27.59375 -62.625 25.375 -58.3125 C 23.15625 -54.007812 22.046875 -48.984375 22.046875 -43.234375 Z M 22.046875 -43.234375 "/></g></g></g><g fill="#089197" fill-opacity="1"><g transform="translate(864.920003, 1989.171187)"><g><path d="M 25.5 -85.96875 L 25.5 -32.765625 C 25.5 -26.929688 27.015625 -22.472656 30.046875 -19.390625 C 33.085938 -16.316406 37.359375 -14.78125 42.859375 -14.78125 C 48.441406 -14.78125 52.753906 -16.316406 55.796875 -19.390625 C 58.835938 -22.472656 60.359375 -26.929688 60.359375 -32.765625 L 60.359375 -85.96875 L 77.71875 -85.96875 L 77.71875 -32.890625 C 77.71875 -25.578125 76.132812 -19.394531 72.96875 -14.34375 C 69.8125 -9.300781 65.582031 -5.503906 60.28125 -2.953125 C 54.988281 -0.410156 49.101562 0.859375 42.625 0.859375 C 36.21875 0.859375 30.40625 -0.410156 25.1875 -2.953125 C 19.976562 -5.503906 15.851562 -9.300781 12.8125 -14.34375 C 9.769531 -19.394531 8.25 -25.578125 8.25 -32.890625 L 8.25 -85.96875 Z M 25.5 -85.96875 "/></g></g></g><g fill="#089197" fill-opacity="1"><g transform="translate(950.714377, 1989.171187)"><g><path d="M 25.75 -85.96875 L 25.75 0 L 8.5 0 L 8.5 -85.96875 Z M 25.75 -85.96875 "/></g></g></g><g fill="#089197" fill-opacity="1"><g transform="translate(984.933688, 1989.171187)"><g><path d="M 38.546875 -85.96875 C 47.585938 -85.96875 55.535156 -84.203125 62.390625 -80.671875 C 69.242188 -77.140625 74.535156 -72.109375 78.265625 -65.578125 C 82.003906 -59.054688 83.875 -51.484375 83.875 -42.859375 C 83.875 -34.242188 82.003906 -26.710938 78.265625 -20.265625 C 74.535156 -13.816406 69.242188 -8.828125 62.390625 -5.296875 C 55.535156 -1.765625 47.585938 0 38.546875 0 L 8.5 0 L 8.5 -85.96875 Z M 37.9375 -14.65625 C 46.96875 -14.65625 53.945312 -17.117188 58.875 -22.046875 C 63.800781 -26.972656 66.265625 -33.910156 66.265625 -42.859375 C 66.265625 -51.816406 63.800781 -58.816406 58.875 -63.859375 C 53.945312 -68.910156 46.96875 -71.4375 37.9375 -71.4375 L 25.75 -71.4375 L 25.75 -14.65625 Z M 37.9375 -14.65625 "/></g></g></g><g fill="#089197" fill-opacity="1"><g transform="translate(1073.189937, 1989.171187)"><g><path d="M 61.21875 -16.375 L 26.96875 -16.375 L 21.3125 0 L 3.203125 0 L 34.125 -86.09375 L 54.203125 -86.09375 L 85.109375 0 L 66.875 0 Z M 56.53125 -30.171875 L 44.09375 -66.140625 L 31.65625 -30.171875 Z M 56.53125 -30.171875 "/></g></g></g><g fill="#089197" fill-opacity="1"><g transform="translate(1161.323111, 1989.171187)"><g><path d="M 67 -85.96875 L 67 -72.0625 L 44.09375 -72.0625 L 44.09375 0 L 26.84375 0 L 26.84375 -72.0625 L 3.9375 -72.0625 L 3.9375 -85.96875 Z M 67 -85.96875 "/></g></g></g><g fill="#089197" fill-opacity="1"><g transform="translate(1232.346571, 1989.171187)"><g><path d="M 25.75 -85.96875 L 25.75 0 L 8.5 0 L 8.5 -85.96875 Z M 25.75 -85.96875 "/></g></g></g><g fill="#089197" fill-opacity="1"><g transform="translate(1266.565882, 1989.171187)"><g><path d="M 48.40625 0.859375 C 40.351562 0.859375 32.960938 -1.023438 26.234375 -4.796875 C 19.503906 -8.578125 14.164062 -13.8125 10.21875 -20.5 C 6.28125 -27.195312 4.3125 -34.773438 4.3125 -43.234375 C 4.3125 -51.609375 6.28125 -59.140625 10.21875 -65.828125 C 14.164062 -72.523438 19.503906 -77.757812 26.234375 -81.53125 C 32.960938 -85.3125 40.351562 -87.203125 48.40625 -87.203125 C 56.53125 -87.203125 63.9375 -85.3125 70.625 -81.53125 C 77.320312 -77.757812 82.617188 -72.523438 86.515625 -65.828125 C 90.421875 -59.140625 92.375 -51.609375 92.375 -43.234375 C 92.375 -34.773438 90.421875 -27.195312 86.515625 -20.5 C 82.617188 -13.8125 77.304688 -8.578125 70.578125 -4.796875 C 63.847656 -1.023438 56.457031 0.859375 48.40625 0.859375 Z M 48.40625 -14.53125 C 53.582031 -14.53125 58.140625 -15.703125 62.078125 -18.046875 C 66.015625 -20.390625 69.09375 -23.734375 71.3125 -28.078125 C 73.53125 -32.429688 74.640625 -37.484375 74.640625 -43.234375 C 74.640625 -48.984375 73.53125 -54.007812 71.3125 -58.3125 C 69.09375 -62.625 66.015625 -65.929688 62.078125 -68.234375 C 58.140625 -70.535156 53.582031 -71.6875 48.40625 -71.6875 C 43.226562 -71.6875 38.648438 -70.535156 34.671875 -68.234375 C 30.691406 -65.929688 27.59375 -62.625 25.375 -58.3125 C 23.15625 -54.007812 22.046875 -48.984375 22.046875 -43.234375 C 22.046875 -37.484375 23.15625 -32.429688 25.375 -28.078125 C 27.59375 -23.734375 30.691406 -20.390625 34.671875 -18.046875 C 38.648438 -15.703125 43.226562 -14.53125 48.40625 -14.53125 Z M 48.40625 -14.53125 "/></g></g></g><g fill="#089197" fill-opacity="1"><g transform="translate(1363.192259, 1989.171187)"><g><path d="M 82.03125 0 L 64.78125 0 L 25.75 -59 L 25.75 0 L 8.5 0 L 8.5 -86.09375 L 25.75 -86.09375 L 64.78125 -26.96875 L 64.78125 -86.09375 L 82.03125 -86.09375 Z M 82.03125 0 "/></g></g></g></svg>